# Blender 4.2.1 LTS
# www.blender.org
mtllib doors.mtl
o HouseDoor.002
v 27.559578 -0.056263 -1.022467
v 27.559578 5.467764 -1.022467
v 27.559578 -0.056263 -3.783077
v 27.559578 5.467764 -3.783077
v 27.752579 -0.056263 -1.022467
v 27.752579 5.467764 -1.022467
v 27.752579 -0.056263 -3.783077
v 27.752579 5.467764 -3.783077
v 37.422272 -0.056263 -1.022467
v 37.422272 5.467763 -1.022467
v 37.422272 -0.056263 -3.783077
v 37.422272 5.467763 -3.783077
v 37.615269 -0.056263 -1.022467
v 37.615269 5.467763 -1.022467
v 37.615269 -0.056263 -3.783077
v 37.615269 5.467763 -3.783077
vn -1.0000 -0.0000 -0.0000
vn -0.0000 -0.0000 -1.0000
vn 1.0000 -0.0000 -0.0000
vn -0.0000 -0.0000 1.0000
vn -0.0000 -1.0000 -0.0000
vn -0.0000 1.0000 -0.0000
vt 0.000000 0.000000
s 0
usemtl Material.006
f 2/1/1 3/1/1 1/1/1
f 4/1/2 7/1/2 3/1/2
f 8/1/3 5/1/3 7/1/3
f 6/1/4 1/1/4 5/1/4
f 7/1/5 1/1/5 3/1/5
f 4/1/6 6/1/6 8/1/6
f 10/1/1 11/1/1 9/1/1
f 12/1/2 15/1/2 11/1/2
f 16/1/3 13/1/3 15/1/3
f 14/1/4 9/1/4 13/1/4
f 15/1/5 9/1/5 11/1/5
f 12/1/6 14/1/6 16/1/6
f 2/1/1 4/1/1 3/1/1
f 4/1/2 8/1/2 7/1/2
f 8/1/3 6/1/3 5/1/3
f 6/1/4 2/1/4 1/1/4
f 7/1/5 5/1/5 1/1/5
f 4/1/6 2/1/6 6/1/6
f 10/1/1 12/1/1 11/1/1
f 12/1/2 16/1/2 15/1/2
f 16/1/3 14/1/3 13/1/3
f 14/1/4 10/1/4 9/1/4
f 15/1/5 13/1/5 9/1/5
f 12/1/6 10/1/6 14/1/6
